<svg id="Capa_1" data-name="Capa 1" xmlns="http://www.w3.org/2000/svg" viewBox="0 0 350.72 505.01"><defs><style>.cls-1{fill:#61434b;}.cls-2{fill:#e8495e;}</style></defs><title>logo</title><path class="cls-1" d="M410.21,219.88,286.38,240.55c3.56,3.09,7.56,2.6,11.1,3.33,3.19.66,6.32,1.19,7.64,4.6s-.67,6.18-3,8.35A97.82,97.82,0,0,1,271,276.28c-1.47.57-3.41,1.67-4.46-.17-.94-1.64.76-3,1.71-4.32,2.46-3.48,6.27-5.43,9.22-8.34,1.42-1.39,2.93-2.72,4.21-4.24,4.92-5.84,4-10.78-2.4-14.93-2.83-1.83-8.11-1.79-7.28-6.83.89-5.5,6.22-4.08,9.8-4.68q80.38-13.59,160.8-26.93c2.78-.46,5.5-.88,6.64,2.41,1.27,3.62-1.4,5-4.1,6.26l-157,71.29c-10.74,4.88-21.55,9.6-32.18,14.71a48.89,48.89,0,0,1-20,5.15c-24.38.72-48.56-.12-72.08-7.58a107,107,0,0,1-18.28-7.78c-5.72-3.08-10.66-7.2-16-12.09-.11,2.37-.25,4.1-.25,5.83q0,81.45.05,162.91c0,9.18,6,15.31,12.48,20.66,11.24,9.34,25,12.89,39,15.23,20.66,3.44,41.47,2.82,62.29,2,3-.12,3.49-1.41,3.45-4-.12-8.83.26-17.67-.15-26.48-.26-5.35,1.92-8.16,6.53-10.39q74.22-35.89,148.34-72,23.54-11.43,47-22.92c5.3-2.58,6-2.17,6,3.67,0,11.5-.08,23,.05,34.48,0,3.79-1.39,6.19-4.83,7.86q-97.92,47.52-195.77,95.21a33.06,33.06,0,0,1-13.4,3.13c-25.67,1.21-51.28,1.47-76.32-5.53-15.07-4.22-28.52-11.08-37.59-24.55a32,32,0,0,1-5.9-18.59c.2-59.13.11-118.27.11-177.41,0-7.21.58-7.93,7.54-9.07,6.07-1,12.13-2.05,18.22-3,2.81-.43,6.06-1,6.92,2.83.92,4.08-2.14,5.07-5.3,5.63-4.26.75-8.5,1.71-12.79,2.12-3.67.34-3.37,1.58-1.49,3.83A58.38,58.38,0,0,0,153.83,285c17.13,8.15,35.46,11.18,54.15,11.94,32.58,1.32,32.59,1.11,63.64-13q67.14-30.5,134.26-61c1.5-.67,2.95-1.43,4.42-2.15Z" transform="translate(-116.29 -146.11)"/><path class="cls-1" d="M454.29,244.14c0,5.49-.18,11,.06,16.48.2,4.4-1.53,7-5.52,8.93Q384.51,300.66,320.3,332,287,348.22,253.61,364.44c-6.61,3.2-7.06,2.87-7.05-4.66,0-10.49.21-21-.11-31.47-.16-5.07,1.84-8,6.26-10.1q70.62-34.12,141.13-68.43C411.92,241,430,232.16,448,223.4c5.66-2.74,6.26-2.34,6.26,3.75C454.3,232.82,454.29,238.48,454.29,244.14Z" transform="translate(-116.29 -146.11)"/><path class="cls-1" d="M454.29,309c0,5.66-.16,11.32,0,17,.17,4.25-1.68,6.71-5.42,8.52q-80.64,39.09-161.2,78.32c-11.79,5.73-23.57,11.49-35.38,17.19-4.86,2.35-5.79,1.75-5.81-3.68,0-11.32.09-22.64,0-34,0-4.11,1.38-6.68,5.27-8.56q91.64-44.42,183.17-89c4.92-2.4,9.89-4.72,14.77-7.2,3.38-1.71,4.59-.48,4.58,2.95C454.27,296.72,454.29,302.88,454.29,309Z" transform="translate(-116.29 -146.11)"/><path class="cls-1" d="M265.31,237.17c0,16.45-8.66,26.9-26.46,32.12a57.87,57.87,0,0,1-31.48.71,32.41,32.41,0,0,1-23.89-27.62,51.5,51.5,0,0,1,6-30.34c6.56-12.26,26.39-17.61,37.94-10.67,3.5,2.1,3.79,4.34,1.7,7.25-1.94,2.68-4.18,5.15-6.29,7.72-1.74,2.11-3,4.41-2.7,7.26.15,1.32.25,2.9,1.77,3.28,1.81.45,2.78-1,3.26-2.42a28,28,0,0,1,3.94-8.52c8.82-11.75,24.38-10.79,31.53,2.11A36.64,36.64,0,0,1,265.31,237.17Z" transform="translate(-116.29 -146.11)"/><path class="cls-1" d="M174.22,275.11c-9.6-8.85-18.46-18.25-21.48-31.71a8.41,8.41,0,0,1,1.93-7.47,60.94,60.94,0,0,1,21.25-16.08c1.55-.71,3.52-1.68,4.65-.47,1.4,1.48-.6,2.85-1.41,4.15-2.82,4.5-6.53,8.35-9.06,13.09a15.64,15.64,0,0,0-1.23,12.48c2.18,7.47,4.24,15,6.31,22.49a19.54,19.54,0,0,1,.35,2.88Z" transform="translate(-116.29 -146.11)"/><path class="cls-1" d="M260.35,178.82c.13-2.57-1.12-3.59-2-4.72-4.48-5.56-9.05-11.07-13.57-16.61-2.62-3.21.12-10.63,4.13-11.33,1.67-.29,2.46.74,3.15,1.9,5.61,9.42,11.14,18.9,16.84,28.27,1.47,2.43.73,4-1.15,5.57q-12.42,10.41-24.84,20.85a7.55,7.55,0,0,1-2.1,1.31c-1.26.5-2.83.82-3.76-.25-1.19-1.37.25-2.49,1.12-3.33,6.37-6.1,12.81-12.12,19.22-18.18C258.66,181.06,260.26,180,260.35,178.82Z" transform="translate(-116.29 -146.11)"/><path class="cls-1" d="M211.18,295a15.54,15.54,0,0,1-7.47-2.91c-8.41-6.57-13.38-15.45-16.89-25.29-.44-1.21-1-2.8.33-3.65s2.52.43,3.35,1.38c2.95,3.37,5.87,6.77,8.67,10.26,5.84,7.29,12.89,9.94,22,6.59,4.18-1.54,8.65-2.3,13-3.26,1-.22,2.44-.71,3,.82.39,1.08-.38,2-1.05,2.64C229.12,288.54,220.49,292.54,211.18,295Z" transform="translate(-116.29 -146.11)"/><path class="cls-1" d="M116.29,535.14a15.82,15.82,0,0,1,1.42-7.09,12.25,12.25,0,0,1,3.86-4.57,15.85,15.85,0,0,1,5.66-2.45,29.82,29.82,0,0,1,6.77-.75c1.9,0,3.81.08,5.71.23s3.76.29,5.57.4,3.55.16,5.2.14a20.89,20.89,0,0,0,4.66-.54,1.35,1.35,0,0,1,1.32.23A1.61,1.61,0,0,1,157,522a7.28,7.28,0,0,1-.49,2.65,7,7,0,0,1-1.4,2.29,6.54,6.54,0,0,1-2.17,1.57,6.84,6.84,0,0,1-2.85.57,17.42,17.42,0,0,1-2.23-.17c-.92-.11-1.83-.24-2.75-.37s-1.75-.27-2.51-.4-1.28-.24-1.54-.31c-.54,2.43-1.08,5-1.63,7.6s-1.11,5.25-1.66,7.88-1.09,5.18-1.63,7.66-1.05,4.8-1.54,7a12.75,12.75,0,0,1-1.43,3.74,2.74,2.74,0,0,1-2.4,1.52c-2.32,0-3.83-.58-4.51-1.75a6.61,6.61,0,0,1-.35-4.82q1.66-7.54,3.32-14.75t3.31-15c-.53,0-1.14-.1-1.83-.2a9.62,9.62,0,0,0-2.08,0,5.93,5.93,0,0,0-2.09.57,4.67,4.67,0,0,0-1.8,1.6,9.37,9.37,0,0,0-1.25,3.06,20.63,20.63,0,0,0-.49,5,5.51,5.51,0,0,1-.23,1.74,2.21,2.21,0,0,1-.63,1,2.09,2.09,0,0,1-.85.46,3.9,3.9,0,0,1-.86.11,3.26,3.26,0,0,1-1.29-.31,4.52,4.52,0,0,1-1.34-.95,5.13,5.13,0,0,1-1.48-3.71Z" transform="translate(-116.29 -146.11)"/><path class="cls-1" d="M177.31,520.74a11.71,11.71,0,0,1,1.74.17,17.72,17.72,0,0,1,2,.46,5.66,5.66,0,0,1,1.66.77c.46.32.63.68.51,1.06q-1.25,5-2.4,10t-2.14,9.65q-1,4.64-1.83,8.55c-.55,2.61-1,4.79-1.45,6.54a16.68,16.68,0,0,1-.86,2.68,6.88,6.88,0,0,1-.94,1.6,2.66,2.66,0,0,1-1,.78,2.81,2.81,0,0,1-1,.2,6.82,6.82,0,0,1-3.17-.6,3.75,3.75,0,0,1-1.6-1.55,4.14,4.14,0,0,1-.43-2.08,16.3,16.3,0,0,1,.29-2.29c.11-.49.22-1,.31-1.51s.23-1.15.4-1.89.38-1.65.6-2.71.52-2.4.86-4H161.2q-.47,2.05-.75,3.48c-.19,1-.37,1.83-.54,2.63l-.51,2.4c-.17.8-.39,1.75-.66,2.86a13.34,13.34,0,0,1-1.4,3.74A2.67,2.67,0,0,1,155,563.2q-3.5,0-4.54-1.75a6.49,6.49,0,0,1-.38-4.82q.87-3.78,1.63-7.35t1.57-7.17c.54-2.4,1.06-4.82,1.58-7.26s1-5,1.62-7.54a14.47,14.47,0,0,0-2.4,1.49,6.56,6.56,0,0,0-1.65,1.88,8.75,8.75,0,0,0-1,2.57,17.49,17.49,0,0,0-.31,3.55,5.51,5.51,0,0,1-.23,1.74,2.21,2.21,0,0,1-.63,1,2.09,2.09,0,0,1-.85.46,4,4,0,0,1-.86.11,3.26,3.26,0,0,1-1.29-.31,4.52,4.52,0,0,1-1.34-.95,5.19,5.19,0,0,1-1.49-3.71,9.6,9.6,0,0,1,1.89-5.6,20.87,20.87,0,0,1,4.71-4.77,25.39,25.39,0,0,1,6.09-3.32,17.16,17.16,0,0,1,5.94-1.22,2.72,2.72,0,0,1,2.49,1.31c.47.84.48,2.34,0,4.51q-.28,1.2-.69,3.12c-.27,1.28-.55,2.6-.86,4s-.6,2.7-.88,4-.53,2.4-.72,3.31h7.83l1.17-5.2q.66-2.85,1.29-5.48c.42-1.75.79-3.31,1.11-4.66a20.18,20.18,0,0,1,.78-2.71,2.57,2.57,0,0,1,1.05-1.29A3.25,3.25,0,0,1,177.31,520.74Z" transform="translate(-116.29 -146.11)"/><path class="cls-1" d="M194.8,557.2a5.48,5.48,0,0,0,2.82-.72,8.35,8.35,0,0,0,2.18-1.8,17.57,17.57,0,0,0,1.71-2.34c.51-.84,1-1.62,1.51-2.34a11,11,0,0,1,1.49-1.8,2.39,2.39,0,0,1,1.71-.72c1,0,1.55,1,1.55,2.92a12.87,12.87,0,0,1-.92,4.45,14.76,14.76,0,0,1-2.74,4.57,15.15,15.15,0,0,1-4.6,3.55A14,14,0,0,1,193,564.4a15.25,15.25,0,0,1-5.31-.89A11.87,11.87,0,0,1,183.6,561a10.89,10.89,0,0,1-2.63-3.89,13.17,13.17,0,0,1-.92-5,12.72,12.72,0,0,1,.86-4.46,14.28,14.28,0,0,1,2.4-4.14,13.32,13.32,0,0,1,3.63-3.06,9,9,0,0,1,4.6-1.2,11.78,11.78,0,0,1-1.74-1.6,10.11,10.11,0,0,1-1.43-2,10.87,10.87,0,0,1-1-2.28,9,9,0,0,1-.34-2.4,9.84,9.84,0,0,1,.92-4.23,10,10,0,0,1,2.62-3.4,12.87,12.87,0,0,1,4.15-2.29,16.86,16.86,0,0,1,5.45-.82,14.25,14.25,0,0,1,3.38.45,11.22,11.22,0,0,1,3.4,1.49,8.54,8.54,0,0,1,2.6,2.71,7.91,7.91,0,0,1,1,4.15,6.84,6.84,0,0,1-1.2,4.22,3.54,3.54,0,0,1-2.91,1.6,2.17,2.17,0,0,1-2-.91,4.49,4.49,0,0,1-.57-2.4,6.53,6.53,0,0,0-1.29-4.43,4,4,0,0,0-3.11-1.46,3.7,3.7,0,0,0-2.72,1.29,4.85,4.85,0,0,0-1.28,3.34,5.1,5.1,0,0,0,.63,2.32,11.44,11.44,0,0,0,1.6,2.34,17.86,17.86,0,0,0,2.11,2.06,14.58,14.58,0,0,0,2.17,1.51,2.26,2.26,0,0,1,1.17.91,1.18,1.18,0,0,1,.09,1,1.56,1.56,0,0,1-.66.77,2.08,2.08,0,0,1-1.17.31,10.77,10.77,0,0,0-4,.8,12.48,12.48,0,0,0-3.63,2.26,11.61,11.61,0,0,0-2.65,3.51,10,10,0,0,0-1,4.58,4.23,4.23,0,0,0,1.37,3.37A4.78,4.78,0,0,0,194.8,557.2Z" transform="translate(-116.29 -146.11)"/><path class="cls-1" d="M237,555.54a5.49,5.49,0,0,0,2.69-.63,8.56,8.56,0,0,0,2-1.54,12.07,12.07,0,0,0,1.57-2c.46-.74.91-1.42,1.37-2a11.91,11.91,0,0,1,1.37-1.54,2.29,2.29,0,0,1,1.6-.63,1.32,1.32,0,0,1,1.09.66,4.13,4.13,0,0,1,.46,2.25A11.28,11.28,0,0,1,248,554.8a16.44,16.44,0,0,1-3.14,4.51,17.1,17.1,0,0,1-4.69,3.4,12.78,12.78,0,0,1-5.77,1.34,11.25,11.25,0,0,1-5.71-1.37,11.84,11.84,0,0,1-4-3.68,16.77,16.77,0,0,1-2.34-5.37,26.23,26.23,0,0,1-.78-6.49,32.11,32.11,0,0,1,.63-6.26,36.65,36.65,0,0,1,1.8-6.17,28.19,28.19,0,0,1,2.95-5.63,23.07,23.07,0,0,1,4-4.57,18.4,18.4,0,0,1,5.06-3.08,15.76,15.76,0,0,1,6.06-1.15,14.35,14.35,0,0,1,3.88.52,9.81,9.81,0,0,1,3.35,1.6,7.88,7.88,0,0,1,2.31,2.74,8.51,8.51,0,0,1,.86,3.94,7.86,7.86,0,0,1-.43,2.77,5.53,5.53,0,0,1-1.06,1.8,3.75,3.75,0,0,1-1.34,1,3.54,3.54,0,0,1-1.29.28,2.18,2.18,0,0,1-2.11-1.11,2.85,2.85,0,0,1-.37-1.06,7.3,7.3,0,0,1-.09-1.14,7.75,7.75,0,0,0-.28-2,6.82,6.82,0,0,0-.86-1.92,5,5,0,0,0-1.4-1.4,3.32,3.32,0,0,0-1.86-.54,5.89,5.89,0,0,0-4.2,1.89,16.61,16.61,0,0,0-3.28,4.77,29.69,29.69,0,0,0-2.15,6.4,31.81,31.81,0,0,0-.77,6.77,21.72,21.72,0,0,0,.34,3.88,11.42,11.42,0,0,0,1.06,3.18,6.2,6.2,0,0,0,1.83,2.14A4.55,4.55,0,0,0,237,555.54Z" transform="translate(-116.29 -146.11)"/><path class="cls-1" d="M285.48,520.28a4.38,4.38,0,0,1,2.51.63,3.19,3.19,0,0,1,1.26,1.66,6.1,6.1,0,0,1,.26,2.31,19.8,19.8,0,0,1-.38,2.66q-1,4.51-2,8.91t-1.82,8.4q-.87,4-1.63,7.35c-.52,2.22-1,4.14-1.35,5.74a24.1,24.1,0,0,1-.77,2.68,6.08,6.08,0,0,1-.8,1.6,2.24,2.24,0,0,1-.91.78,3,3,0,0,1-1.12.2,7,7,0,0,1-2.8-.49,4.26,4.26,0,0,1-1.65-1.2,3.47,3.47,0,0,1-.72-1.6,4.78,4.78,0,0,1,0-1.69,9.64,9.64,0,0,0,.2-1.22c.1-.71.28-1.61.54-2.72a17.24,17.24,0,0,0-2.4-3.45,20.73,20.73,0,0,0-3.25-3q-2.18,4.33-4.06,8.25a60.64,60.64,0,0,1-3.83,6.89,19.65,19.65,0,0,1-4.17,4.74,8,8,0,0,1-5.14,1.77c-.31,0-.87,0-1.69-.08a18.38,18.38,0,0,1-2.54-.38,9,9,0,0,1-2.31-.8,1.53,1.53,0,0,1-1-1.37,1.41,1.41,0,0,1,.34-1,1.24,1.24,0,0,1,1-.37,6.55,6.55,0,0,0,4.51-1.8,22.36,22.36,0,0,0,3.86-4.74,67.85,67.85,0,0,0,3.71-6.77c1.24-2.55,2.61-5.18,4.09-7.89-.65-.15-1.27-.26-1.86-.34a13.83,13.83,0,0,0-1.85-.11,3.13,3.13,0,0,0-2.15.54,2.81,2.81,0,0,0-.74,1.23c-.13.45-.27.86-.4,1.23s-.48.54-1.06.54a2.6,2.6,0,0,1-1.45-.4,3.74,3.74,0,0,1-1-1,4.37,4.37,0,0,1-.63-1.37,5.66,5.66,0,0,1-.2-1.43,6.1,6.1,0,0,1,.29-1.66,5.44,5.44,0,0,1,1-1.88,6.21,6.21,0,0,1,2-1.57,7.19,7.19,0,0,1,3.29-.66,20.39,20.39,0,0,1,3.88.37,29,29,0,0,1,3.95,1.06q1.59-3.09,3.71-6.37a38.25,38.25,0,0,1,4.74-6,25.15,25.15,0,0,1,5.75-4.42A13.53,13.53,0,0,1,285.48,520.28Zm-9.43,26.4c.46-2,.91-4.11,1.37-6.17s.88-3.94,1.26-5.66c.42-2,.85-3.88,1.31-5.71a2.76,2.76,0,0,0-1.86,1,14.84,14.84,0,0,0-2.05,2.83q-1.06,1.8-2.26,4.17t-2.51,5.11A22.35,22.35,0,0,1,276.05,546.68Z" transform="translate(-116.29 -146.11)"/><path class="cls-1" d="M289.42,535.14a9.6,9.6,0,0,1,1.89-5.6,20.47,20.47,0,0,1,4.71-4.77,25,25,0,0,1,6.09-3.32,17.16,17.16,0,0,1,5.94-1.22,2.69,2.69,0,0,1,2.48,1.31c.48.84.49,2.34,0,4.51-.19.88-.45,2.11-.8,3.69s-.69,3.24-1.05,5-.72,3.41-1.06,5-.63,2.9-.86,3.86a21.94,21.94,0,0,0,1.6-2.6c.61-1.13,1.25-2.38,1.91-3.77s1.36-2.83,2.06-4.32,1.4-2.92,2.09-4.31,1.33-2.65,1.94-3.77a16.74,16.74,0,0,1,1.66-2.6,3.38,3.38,0,0,1,2.2-1.38,7.22,7.22,0,0,1,2.54,0,6.77,6.77,0,0,1,2,.69c.53.31.74.53.63.69L312.9,545.77a3.57,3.57,0,0,0,.29,1.11c.23.67.55,1.5,1,2.49s.92,2,1.49,3.2a26.73,26.73,0,0,0,1.83,3.14,14.13,14.13,0,0,0,2,2.4,3,3,0,0,0,2,1c.35,0,.42.23.23.69a4.89,4.89,0,0,1-1.2,1.54,9,9,0,0,1-2.37,1.54,7.45,7.45,0,0,1-3.23.69,9.63,9.63,0,0,1-3.43-.49,4.6,4.6,0,0,1-2.17-1.91,18.35,18.35,0,0,1-1.77-4l-2.23-6.69c-.3,1.34-.5,2.28-.6,2.83s-.18,1-.26,1.32-.16.69-.25,1.11l-.54,2.23a13.65,13.65,0,0,1-1.41,3.74,2.67,2.67,0,0,1-2.37,1.52q-3.48,0-4.54-1.75a6.5,6.5,0,0,1-.37-4.82q.86-3.78,1.63-7.35c.51-2.38,1-4.77,1.57-7.17s1.06-4.82,1.57-7.26,1.06-5,1.63-7.54a14.47,14.47,0,0,0-2.4,1.49,6.45,6.45,0,0,0-1.66,1.88,8.75,8.75,0,0,0-.94,2.57,17.42,17.42,0,0,0-.32,3.55,5.54,5.54,0,0,1-.22,1.74,2.39,2.39,0,0,1-.63,1,2.12,2.12,0,0,1-.86.46,3.83,3.83,0,0,1-.86.11,3.18,3.18,0,0,1-1.28-.31,4.28,4.28,0,0,1-1.34-.95,5.19,5.19,0,0,1-1.49-3.71Z" transform="translate(-116.29 -146.11)"/><path class="cls-1" d="M336.1,557.2a5.49,5.49,0,0,0,2.83-.72,8.3,8.3,0,0,0,2.17-1.8,17.63,17.63,0,0,0,1.72-2.34c.51-.84,1-1.62,1.51-2.34a11,11,0,0,1,1.49-1.8,2.37,2.37,0,0,1,1.71-.72c1,0,1.54,1,1.54,2.92a12.83,12.83,0,0,1-.91,4.45,14.76,14.76,0,0,1-2.74,4.57,15.28,15.28,0,0,1-4.6,3.55,14,14,0,0,1-6.49,1.43,15.25,15.25,0,0,1-5.31-.89A12,12,0,0,1,324.9,561a11,11,0,0,1-2.63-3.89,13.37,13.37,0,0,1-.91-5,12.72,12.72,0,0,1,.86-4.46,14.28,14.28,0,0,1,2.4-4.14,13.32,13.32,0,0,1,3.63-3.06,9,9,0,0,1,4.6-1.2,12.37,12.37,0,0,1-1.75-1.6,10.54,10.54,0,0,1-1.43-2,10.84,10.84,0,0,1-.94-2.28,8.64,8.64,0,0,1-.34-2.4,9.83,9.83,0,0,1,.91-4.23,10.13,10.13,0,0,1,2.63-3.4,12.82,12.82,0,0,1,4.14-2.29,16.93,16.93,0,0,1,5.46-.82,14.17,14.17,0,0,1,3.37.45,11.11,11.11,0,0,1,3.4,1.49,8.33,8.33,0,0,1,2.6,2.71,7.81,7.81,0,0,1,1,4.15,6.84,6.84,0,0,1-1.2,4.22,3.54,3.54,0,0,1-2.91,1.6,2.16,2.16,0,0,1-2-.91,4.49,4.49,0,0,1-.57-2.4,6.53,6.53,0,0,0-1.29-4.43,4,4,0,0,0-3.11-1.46,3.69,3.69,0,0,0-2.72,1.29,4.8,4.8,0,0,0-1.28,3.34,5.08,5.08,0,0,0,.62,2.32,11.85,11.85,0,0,0,1.6,2.34,18.75,18.75,0,0,0,2.12,2.06,14.09,14.09,0,0,0,2.17,1.51,2.26,2.26,0,0,1,1.17.91,1.22,1.22,0,0,1,.09,1,1.67,1.67,0,0,1-.66.77,2.08,2.08,0,0,1-1.17.31,10.73,10.73,0,0,0-4,.8,12.48,12.48,0,0,0-3.63,2.26,11.64,11.64,0,0,0-2.66,3.51,10.17,10.17,0,0,0-1,4.58,4.24,4.24,0,0,0,1.38,3.37A4.77,4.77,0,0,0,336.1,557.2Z" transform="translate(-116.29 -146.11)"/><path class="cls-1" d="M363.07,535.14a9.6,9.6,0,0,1,1.89-5.6,20.87,20.87,0,0,1,4.71-4.77,25.39,25.39,0,0,1,6.09-3.32,17.16,17.16,0,0,1,5.94-1.22,2.72,2.72,0,0,1,2.49,1.31c.47.84.48,2.34,0,4.51q-.85,3.78-1.71,8t-1.74,8.34L379,550.51c-.58,2.67-1.13,5.14-1.66,7.43a13.34,13.34,0,0,1-1.4,3.74,2.67,2.67,0,0,1-2.37,1.52c-2.33,0-3.84-.58-4.55-1.75a6.55,6.55,0,0,1-.37-4.82c.57-2.52,1.12-5,1.63-7.35s1-4.77,1.57-7.17,1.06-4.82,1.57-7.26,1.06-5,1.63-7.54a14.47,14.47,0,0,0-2.4,1.49,6.41,6.41,0,0,0-1.65,1.88,8.75,8.75,0,0,0-.95,2.57,17.49,17.49,0,0,0-.31,3.55,5.51,5.51,0,0,1-.23,1.74,2.21,2.21,0,0,1-.63,1,2.12,2.12,0,0,1-.86.46,3.81,3.81,0,0,1-.85.11,3.26,3.26,0,0,1-1.29-.31,4.4,4.4,0,0,1-1.34-.95,5.19,5.19,0,0,1-1.49-3.71Z" transform="translate(-116.29 -146.11)"/><path class="cls-1" d="M415.24,529.08a7.17,7.17,0,0,1-1.14,4.17,3.45,3.45,0,0,1-3,1.66,2.07,2.07,0,0,1-2.09-1,5.29,5.29,0,0,1-.48-2.28,7.28,7.28,0,0,0-.37-2.29,6.82,6.82,0,0,0-1-1.88,4.4,4.4,0,0,0-1.4-1.26,3.22,3.22,0,0,0-1.65-.46,2.71,2.71,0,0,0-1,.2,2.92,2.92,0,0,0-1,.63,3.86,3.86,0,0,0-.77,1.06,3.41,3.41,0,0,0-.31,1.54,5.21,5.21,0,0,0,.86,2.77,21.83,21.83,0,0,0,2.14,2.89c.86,1,1.78,2,2.77,3.11a34,34,0,0,1,2.77,3.49,19.66,19.66,0,0,1,2.14,4,12.25,12.25,0,0,1,.86,4.65,15.65,15.65,0,0,1-1.17,6.29,12.59,12.59,0,0,1-3.17,4.46,13.26,13.26,0,0,1-4.74,2.65,18.92,18.92,0,0,1-5.83.89,13.44,13.44,0,0,1-5.06-.94,12.41,12.41,0,0,1-4-2.58,11.62,11.62,0,0,1-2.63-3.85,12.35,12.35,0,0,1-.94-4.86,11.37,11.37,0,0,1,.68-4.06,8.77,8.77,0,0,1,1.81-2.94,7.54,7.54,0,0,1,5.45-2.37c1.26,0,2,.31,2.23.94a4,4,0,0,1,0,2.32,28.38,28.38,0,0,1-.94,3,8.4,8.4,0,0,0-.6,2.91,6,6,0,0,0,1.2,3.75,4.07,4.07,0,0,0,3.43,1.57,4.69,4.69,0,0,0,2.4-.57,4.82,4.82,0,0,0,1.54-1.43,5.5,5.5,0,0,0,.8-1.86,8.58,8.58,0,0,0,.23-1.86,8.79,8.79,0,0,0-.86-3.88,17.74,17.74,0,0,0-2.17-3.4q-1.32-1.63-2.83-3.2t-2.83-3.2a17.56,17.56,0,0,1-2.17-3.4,8.84,8.84,0,0,1-.86-3.89,8.5,8.5,0,0,1,1-4.11,10.06,10.06,0,0,1,2.8-3.23,13.81,13.81,0,0,1,4.2-2.12,17.11,17.11,0,0,1,5.17-.77,15,15,0,0,1,3.75.49,10.2,10.2,0,0,1,3.34,1.54,8.06,8.06,0,0,1,2.4,2.74A8.36,8.36,0,0,1,415.24,529.08Z" transform="translate(-116.29 -146.11)"/><path class="cls-1" d="M463,520.28a4.38,4.38,0,0,1,2.51.63,3.19,3.19,0,0,1,1.26,1.66,5.92,5.92,0,0,1,.25,2.31,18.26,18.26,0,0,1-.37,2.66q-1,4.51-2,8.91c-.65,2.94-1.25,5.74-1.83,8.4s-1.11,5.12-1.62,7.35-1,4.14-1.35,5.74a26.48,26.48,0,0,1-.77,2.68,6.08,6.08,0,0,1-.8,1.6,2.24,2.24,0,0,1-.91.78,3,3,0,0,1-1.12.2,7,7,0,0,1-2.8-.49,4.26,4.26,0,0,1-1.65-1.2,3.37,3.37,0,0,1-.72-1.6,4.78,4.78,0,0,1,0-1.69,12.25,12.25,0,0,0,.2-1.22c.09-.71.28-1.61.54-2.72a18.11,18.11,0,0,0-2.4-3.45,21.18,21.18,0,0,0-3.25-3q-2.18,4.33-4.06,8.25a62.23,62.23,0,0,1-3.83,6.89,20.08,20.08,0,0,1-4.17,4.74,8,8,0,0,1-5.14,1.77c-.31,0-.87,0-1.69-.08a18.16,18.16,0,0,1-2.54-.38,9.16,9.16,0,0,1-2.32-.8,1.55,1.55,0,0,1-1-1.37,1.42,1.42,0,0,1,.35-1,1.24,1.24,0,0,1,1-.37,6.57,6.57,0,0,0,4.51-1.8,22.36,22.36,0,0,0,3.86-4.74,67.85,67.85,0,0,0,3.71-6.77q1.86-3.82,4.09-7.89c-.65-.15-1.27-.26-1.86-.34a13.88,13.88,0,0,0-1.86-.11,3.1,3.1,0,0,0-2.14.54,2.81,2.81,0,0,0-.74,1.23c-.13.45-.27.86-.4,1.23s-.49.54-1.06.54a2.66,2.66,0,0,1-1.46-.4,3.71,3.71,0,0,1-1-1,4.37,4.37,0,0,1-.63-1.37,5.24,5.24,0,0,1-.2-1.43,6,6,0,0,1,.28-1.66,5.47,5.47,0,0,1,1-1.88,6.11,6.11,0,0,1,2-1.57,7.19,7.19,0,0,1,3.29-.66,20.39,20.39,0,0,1,3.88.37A28.49,28.49,0,0,1,442,538.8q1.61-3.09,3.72-6.37a38.25,38.25,0,0,1,4.74-6,25.32,25.32,0,0,1,5.74-4.42A13.59,13.59,0,0,1,463,520.28Zm-9.43,26.4q.68-3.07,1.37-6.17c.46-2.06.87-3.94,1.26-5.66q.61-3,1.31-5.71a2.76,2.76,0,0,0-1.86,1,14.84,14.84,0,0,0-2.05,2.83q-1.06,1.8-2.26,4.17t-2.52,5.11A22.17,22.17,0,0,1,453.53,546.68Z" transform="translate(-116.29 -146.11)"/><path class="cls-2" d="M278.05,637.73c.39,0,.7.31.94.94a6.54,6.54,0,0,1,.36,2.34,10.82,10.82,0,0,1-.5,3.06,9,9,0,0,1-1.66,3.06,9.35,9.35,0,0,1-3,2.34,10.5,10.5,0,0,1-4.69.93,29.72,29.72,0,0,1-6-.68c-2.16-.46-4.34-.89-6.52-1.3a45.08,45.08,0,0,0-6.41-.72,13.68,13.68,0,0,0-5.72,1c-.53.25-.91,0-1.15-.61a4.18,4.18,0,0,1,0-2.48,8.35,8.35,0,0,1,1.7-3.1,8.2,8.2,0,0,1,3.74-2.44c.67-3,1.32-6,1.94-8.9s1.26-5.8,1.91-8.71,1.3-5.84,1.94-8.82,1.31-6.05,2-9.21a17.82,17.82,0,0,0-3,1.87,8.27,8.27,0,0,0-2.09,2.37,11.25,11.25,0,0,0-1.19,3.24,22.24,22.24,0,0,0-.39,4.47,6.86,6.86,0,0,1-.29,2.19,2.85,2.85,0,0,1-.79,1.26,2.72,2.72,0,0,1-1.08.58,4.33,4.33,0,0,1-1.08.14,4.14,4.14,0,0,1-1.62-.39,5.55,5.55,0,0,1-1.69-1.19,6.67,6.67,0,0,1-1.33-2,6.29,6.29,0,0,1-.54-2.7,12.14,12.14,0,0,1,2.37-7.06,26.43,26.43,0,0,1,5.94-6,32.11,32.11,0,0,1,7.67-4.18,21.4,21.4,0,0,1,7.49-1.54,3.45,3.45,0,0,1,3.13,1.65q.9,1.59,0,5.69-1,4.32-2,9.15c-.67,3.21-1.35,6.44-2,9.68s-1.34,6.43-2,9.57-1.32,6.11-1.95,8.9l4,.72a21.91,21.91,0,0,0,3.92.36,13.79,13.79,0,0,0,4.32-.54,10.25,10.25,0,0,0,2.52-1.19,13.29,13.29,0,0,0,1.52-1.19A1.9,1.9,0,0,1,278.05,637.73Z" transform="translate(-116.29 -146.11)"/><path class="cls-2" d="M281.87,614.26a12.14,12.14,0,0,1,2.37-7.06,26.43,26.43,0,0,1,5.94-6,32.31,32.31,0,0,1,7.67-4.18,21.44,21.44,0,0,1,7.49-1.54,3.44,3.44,0,0,1,3.13,1.65q.9,1.59,0,5.69-1.08,4.76-2.16,10t-2.2,10.51q-1.11,5.25-2.19,10.3T299.87,643a16.55,16.55,0,0,1-1.77,4.71,3.34,3.34,0,0,1-3,1.91q-4.39,0-5.73-2.19c-.89-1.47-1-3.5-.47-6.09q1.08-4.76,2.06-9.25t2-9q1-4.53,2-9.14c.64-3.07,1.33-6.24,2.05-9.5a18.22,18.22,0,0,0-3,1.87,8.09,8.09,0,0,0-2.08,2.37,11,11,0,0,0-1.19,3.24,21.47,21.47,0,0,0-.4,4.47,6.59,6.59,0,0,1-.29,2.19,2.76,2.76,0,0,1-.79,1.26,2.59,2.59,0,0,1-1.08.58,4.22,4.22,0,0,1-1.08.14,4.14,4.14,0,0,1-1.62-.39,5.67,5.67,0,0,1-1.69-1.19,6.67,6.67,0,0,1-1.33-2A6.44,6.44,0,0,1,281.87,614.26Z" transform="translate(-116.29 -146.11)"/><path class="cls-2" d="M324.42,642.05a7,7,0,0,0,3.56-.9,10.47,10.47,0,0,0,2.74-2.27,22.14,22.14,0,0,0,2.16-3c.65-1,1.28-2,1.91-2.95a14.61,14.61,0,0,1,1.87-2.27,3,3,0,0,1,2.16-.9c1.3,0,1.94,1.23,1.94,3.67a16.23,16.23,0,0,1-1.15,5.62,18.79,18.79,0,0,1-9.25,10.22,17.6,17.6,0,0,1-8.17,1.8,19.34,19.34,0,0,1-6.7-1.11,15,15,0,0,1-5.18-3.17,13.71,13.71,0,0,1-3.31-4.9,16.55,16.55,0,0,1-1.16-6.3,15.92,15.92,0,0,1,1.08-5.61,17.92,17.92,0,0,1,3-5.22,16.56,16.56,0,0,1,4.57-3.85,11.39,11.39,0,0,1,5.8-1.52,15.22,15.22,0,0,1-2.2-2,13.14,13.14,0,0,1-1.8-2.52,14,14,0,0,1-1.19-2.88,10.93,10.93,0,0,1-.43-3,12.36,12.36,0,0,1,1.15-5.33,12.74,12.74,0,0,1,3.31-4.28,16,16,0,0,1,5.22-2.88,21.42,21.42,0,0,1,6.88-1,17.8,17.8,0,0,1,4.25.57,14,14,0,0,1,4.28,1.88,10.71,10.71,0,0,1,3.28,3.41,9.9,9.9,0,0,1,1.29,5.22,8.64,8.64,0,0,1-1.51,5.33,4.46,4.46,0,0,1-3.67,2,2.73,2.73,0,0,1-2.52-1.15,5.66,5.66,0,0,1-.72-3q0-3.74-1.62-5.58a5.06,5.06,0,0,0-3.92-1.83,4.65,4.65,0,0,0-3.42,1.62,6,6,0,0,0-1.62,4.21,6.38,6.38,0,0,0,.79,2.91,14.88,14.88,0,0,0,2,3,23.34,23.34,0,0,0,2.67,2.59,18.79,18.79,0,0,0,2.73,1.91,2.83,2.83,0,0,1,1.48,1.15,1.48,1.48,0,0,1,.11,1.22,2,2,0,0,1-.83,1,2.7,2.7,0,0,1-1.48.39,13.52,13.52,0,0,0-5,1,15.42,15.42,0,0,0-4.57,2.84,14.81,14.81,0,0,0-3.35,4.43,12.76,12.76,0,0,0-1.29,5.76,5.32,5.32,0,0,0,1.73,4.25A6,6,0,0,0,324.42,642.05Z" transform="translate(-116.29 -146.11)"/></svg>